<svg viewBox="0 0 130 30" class="text-slate-900 dark:text-white w-auto h-5">
  <path fill-rule="evenodd" clip-rule="evenodd"
        d="M12.3,20.3c-0.5-0.4-0.5,0.2-0.7,0.3c-0.9,1-1.9,1.5-3.3,1.1c-1.3-0.3-2-1.2-2.1-2.5c0-0.5-0.2-0.5-0.6-0.6
		C4,18.3,3.1,17.4,3,16c-0.1-1.2,0.6-2.3,2-3c0.8-0.4,1.7-0.6,2.7-0.8c-0.9-0.3-1.8-0.5-2.6-0.8C3.6,10.7,2.9,9.6,3,8.3
		C3.1,6.9,4,6,5.6,5.6C6,5.5,6.1,5.3,6.2,4.9c0.3-1.6,1.2-2.4,2.5-2.6c1.3-0.2,2.5,0.5,3.2,1.9c0.2,0.5,0.4,1,0.6,1.6
		c0.1,0.5,0.2,1,0.4,1.7c0.3-1.2,0.4-2.3,0.9-3.2c0.7-1.4,1.8-2.2,3.2-2s2.2,1,2.5,2.7c0.1,0.5,0.3,0.5,0.7,0.6
		c1.5,0.3,2.5,1.3,2.6,2.7c0.1,1.3-0.6,2.4-2,3c-0.9,0.4-1.8,0.6-2.7,0.9c1.1,0.3,2.2,0.5,3.1,1c1.3,0.7,1.8,1.8,1.6,3
		c-0.2,1.2-1.1,2.2-2.4,2.5c-0.4,0.1-0.7,0-0.8,0.6c-0.6,2.8-2.8,3.5-5.1,1.8c-0.1-0.1-0.3-0.1-0.4-0.2c-0.8-0.6-0.9-1.6-1.2-2.5
		c0-0.2,0.1-0.3,0.1-0.5c-0.2,0.2-0.1,0.6-0.1,0.9C12.6,19.2,12.7,19.9,12.3,20.3z"
        fill="#00d16a"></path>
  <path fill-rule="evenodd" clip-rule="evenodd"
        d="M13.1,18.2c0.3,0.9,0.6,1.7,1,2.6c0.1,2.1,1.3,3.5,3,4.7c0.6,0.4,1.7,0.6,1,1.6c-0.6,0.9-1.4,0.1-1.9-0.3
		c-2.4-1.5-3.7-3.6-3.9-6.4c-0.1-0.6,0-1.1,0.3-1.7C12.8,18.6,12.6,18.1,13.1,18.2z"
        fill="#028563"></path>
  <path fill-rule="evenodd" clip-rule="evenodd" d="M37.6,10.7h2.8v1.6h-2.8v10.4h-1.9V12.2h-2v-1.6h2v-0.1c0-4.2,1.6-4.9,4.1-4.9c0.4,0,0.9,0,1.3,0.1v1.5
		c-0.3-0.1-0.8-0.1-1.3-0.1C38.1,7.2,37.6,7.9,37.6,10.7z" fill="currentColor"></path>
  <path fill-rule="evenodd" clip-rule="evenodd" d="M42,16.7c0-4.8,2-6.2,5.6-6.2c3.6,0,5.5,1.4,5.5,6.2c0,4.8-2,6.2-5.5,6.2C44,22.9,42,21.5,42,16.7z M51.1,16.7
		c0-3.5-0.9-4.6-3.5-4.6c-2.7,0-3.5,1.1-3.5,4.6c0,3.5,0.9,4.6,3.5,4.6C50.3,21.3,51.1,20.2,51.1,16.7z" fill="currentColor"></path>
  <path fill-rule="evenodd" clip-rule="evenodd" d="M66,10.7v12h-1.6L64.2,21c-0.7,1.6-2.3,2-3.8,2c-3.1,0-4-1.6-4-3.9v-8.3h1.9v7.6c0,1.8,0.4,2.9,2.3,2.9
		c1.5,0,2.9-0.3,3.5-2.4v-8.2H66z" fill="currentColor"></path>
  <path fill-rule="evenodd" clip-rule="evenodd" d="M76.1,10.4L76,12.2h-0.3c-1.5,0-3.1,0.5-3.7,2.7v7.9h-1.9v-12H72v2.2c0.8-2,2.4-2.4,3.8-2.4H76.1z" fill="currentColor"></path>
  <path fill-rule="evenodd" clip-rule="evenodd" d="M78.5,20.3V5.8h1.9v14c0,1.2,0.3,1.4,1.1,1.4c0.3,0,0.6,0,0.9-0.1v1.6c-0.4,0.1-0.7,0.1-1.3,0.1
		C79.4,22.8,78.5,22.1,78.5,20.3z" fill="currentColor"></path>
  <path fill-rule="evenodd" clip-rule="evenodd" d="M94.4,16.9l-8.2,0.5c0,2.6,0.9,3.8,3.9,3.8c1.3,0,2.9-0.3,3.8-0.8v1.8c-0.7,0.4-2.3,0.7-4.1,0.7c-3.5,0-5.6-1.4-5.6-6.2
		c0-4.8,2-6.2,5.5-6.2c4.1,0,4.8,2.7,4.8,5C94.5,15.8,94.4,16.3,94.4,16.9z M92.6,15.5c0-1.9-0.3-3.5-2.9-3.5
		c-2.8,0-3.4,1.5-3.5,3.9L92.6,15.5z" fill="currentColor"></path>
  <path fill-rule="evenodd" clip-rule="evenodd" d="M107.3,14.2v8.5h-1.6l-0.3-1.8c-0.7,1.3-2.5,2-4.3,2c-2.9,0-4.1-1.3-4.1-3.6c0-2.9,1.9-3.8,4.8-3.8h3.7v-1
		c0-1.4-0.5-2.5-3-2.5c-0.8,0-1.8,0.1-2.7,0.3v-1.7c0.9-0.1,1.9-0.2,2.7-0.2C106.3,10.4,107.3,12,107.3,14.2z M105.4,19v-2h-3.5
		c-2,0-2.9,0.4-2.9,2.3c0,1.3,0.6,2,2.3,2C103.3,21.3,104.8,20.4,105.4,19z" fill="currentColor"></path>
  <path fill-rule="evenodd" clip-rule="evenodd" d="M113.7,10.7h2.8v1.6h-2.8v10.4h-1.9V12.2h-2v-1.6h2v-0.1c0-4.2,1.6-4.9,4.1-4.9c0.4,0,0.9,0,1.3,0.1v1.5
		c-0.3-0.1-0.8-0.1-1.3-0.1C114.2,7.2,113.7,7.9,113.7,10.7z" fill="currentColor"></path>
</svg>